<svg id="mermaid-svg" width="100%" xmlns="http://www.w3.org/2000/svg" class="flowchart" style="max-width: 2487.38623046875px;" viewBox="0 0 2487.38623046875 242.6796875" role="graphics-document document" aria-roledescription="flowchart-v2" xmlns:xlink="http://www.w3.org/1999/xlink"><style xmlns="http://www.w3.org/1999/xhtml">@import url("https://cdnjs.cloudflare.com/ajax/libs/font-awesome/6.7.2/css/all.min.css");</style><style>#mermaid-svg{font-family:"trebuchet ms",verdana,arial,sans-serif;font-size:16px;fill:#333;}@keyframes edge-animation-frame{from{stroke-dashoffset:0;}}@keyframes dash{to{stroke-dashoffset:0;}}#mermaid-svg .edge-animation-slow{stroke-dasharray:9,5!important;stroke-dashoffset:900;animation:dash 50s linear infinite;stroke-linecap:round;}#mermaid-svg .edge-animation-fast{stroke-dasharray:9,5!important;stroke-dashoffset:900;animation:dash 20s linear infinite;stroke-linecap:round;}#mermaid-svg .error-icon{fill:#552222;}#mermaid-svg .error-text{fill:#552222;stroke:#552222;}#mermaid-svg .edge-thickness-normal{stroke-width:1px;}#mermaid-svg .edge-thickness-thick{stroke-width:3.5px;}#mermaid-svg .edge-pattern-solid{stroke-dasharray:0;}#mermaid-svg .edge-thickness-invisible{stroke-width:0;fill:none;}#mermaid-svg .edge-pattern-dashed{stroke-dasharray:3;}#mermaid-svg .edge-pattern-dotted{stroke-dasharray:2;}#mermaid-svg .marker{fill:#333333;stroke:#333333;}#mermaid-svg .marker.cross{stroke:#333333;}#mermaid-svg svg{font-family:"trebuchet ms",verdana,arial,sans-serif;font-size:16px;}#mermaid-svg p{margin:0;}#mermaid-svg .label{font-family:"trebuchet ms",verdana,arial,sans-serif;color:#333;}#mermaid-svg .cluster-label text{fill:#333;}#mermaid-svg .cluster-label span{color:#333;}#mermaid-svg .cluster-label span p{background-color:transparent;}#mermaid-svg .label text,#mermaid-svg span{fill:#333;color:#333;}#mermaid-svg .node rect,#mermaid-svg .node circle,#mermaid-svg .node ellipse,#mermaid-svg .node polygon,#mermaid-svg .node path{fill:#ECECFF;stroke:#9370DB;stroke-width:1px;}#mermaid-svg .rough-node .label text,#mermaid-svg .node .label text,#mermaid-svg .image-shape .label,#mermaid-svg .icon-shape .label{text-anchor:middle;}#mermaid-svg .node .katex path{fill:#000;stroke:#000;stroke-width:1px;}#mermaid-svg .rough-node .label,#mermaid-svg .node .label,#mermaid-svg .image-shape .label,#mermaid-svg .icon-shape .label{text-align:center;}#mermaid-svg .node.clickable{cursor:pointer;}#mermaid-svg .root .anchor path{fill:#333333!important;stroke-width:0;stroke:#333333;}#mermaid-svg .arrowheadPath{fill:#333333;}#mermaid-svg .edgePath .path{stroke:#333333;stroke-width:1px;}#mermaid-svg .flowchart-link{stroke:#333333;fill:none;}#mermaid-svg .edgeLabel{background-color:rgba(232,232,232, 0.8);text-align:center;}#mermaid-svg .edgeLabel p{background-color:rgba(232,232,232, 0.8);}#mermaid-svg .edgeLabel rect{opacity:0.5;background-color:rgba(232,232,232, 0.8);fill:rgba(232,232,232, 0.8);}#mermaid-svg .labelBkg{background-color:rgba(232, 232, 232, 0.5);}#mermaid-svg .cluster rect{fill:#ffffde;stroke:#aaaa33;stroke-width:1px;}#mermaid-svg .cluster text{fill:#333;}#mermaid-svg .cluster span{color:#333;}#mermaid-svg div.mermaidTooltip{position:absolute;text-align:center;max-width:200px;padding:2px;font-family:"trebuchet ms",verdana,arial,sans-serif;font-size:12px;background:hsl(80, 100%, 96.2745098039%);border:1px solid #aaaa33;border-radius:2px;pointer-events:none;z-index:100;}#mermaid-svg .flowchartTitleText{text-anchor:middle;font-size:18px;fill:#333;}#mermaid-svg rect.text{fill:none;stroke-width:0;}#mermaid-svg .icon-shape,#mermaid-svg .image-shape{background-color:rgba(232,232,232, 0.8);text-align:center;}#mermaid-svg .icon-shape p,#mermaid-svg .image-shape p{background-color:rgba(232,232,232, 0.8);padding:2px;}#mermaid-svg .icon-shape .label rect,#mermaid-svg .image-shape .label rect{opacity:0.5;background-color:rgba(232,232,232, 0.8);fill:rgba(232,232,232, 0.8);}#mermaid-svg .label-icon{display:inline-block;height:1em;overflow:visible;vertical-align:-0.125em;}#mermaid-svg .node .label-icon path{fill:currentColor;stroke:revert;stroke-width:revert;}#mermaid-svg .node .neo-node{stroke:#9370DB;}#mermaid-svg [data-look="neo"].node rect,#mermaid-svg [data-look="neo"].cluster rect,#mermaid-svg [data-look="neo"].node polygon{stroke:#9370DB;filter:drop-shadow(1px 2px 2px rgba(185, 185, 185, 1));}#mermaid-svg [data-look="neo"].swimlane.cluster rect{filter:none;}#mermaid-svg [data-look="neo"].node path{stroke:#9370DB;stroke-width:1px;}#mermaid-svg [data-look="neo"].node .outer-path{filter:drop-shadow(1px 2px 2px rgba(185, 185, 185, 1));}#mermaid-svg [data-look="neo"].node .neo-line path{stroke:#9370DB;filter:none;}#mermaid-svg [data-look="neo"].node circle{stroke:#9370DB;filter:drop-shadow(1px 2px 2px rgba(185, 185, 185, 1));}#mermaid-svg [data-look="neo"].node circle .state-start{fill:#000000;}#mermaid-svg [data-look="neo"].icon-shape .icon{fill:#9370DB;filter:drop-shadow(1px 2px 2px rgba(185, 185, 185, 1));}#mermaid-svg [data-look="neo"].icon-shape .icon-neo path{stroke:#9370DB;filter:drop-shadow(1px 2px 2px rgba(185, 185, 185, 1));}#mermaid-svg :root{--mermaid-font-family:"trebuchet ms",verdana,arial,sans-serif;}#mermaid-svg .branch&gt;*{fill:rgb(255, 255, 255)!important;stroke:rgb(214, 221, 227)!important;color:rgb(27, 35, 43)!important;}#mermaid-svg .branch span{fill:rgb(255, 255, 255)!important;stroke:rgb(214, 221, 227)!important;color:rgb(27, 35, 43)!important;}#mermaid-svg .branch tspan{fill:rgb(27, 35, 43)!important;}#mermaid-svg .devline&gt;*{fill:rgb(31, 157, 100)!important;stroke:rgb(31, 157, 100)!important;color:rgb(255, 255, 255)!important;}#mermaid-svg .devline span{fill:rgb(31, 157, 100)!important;stroke:rgb(31, 157, 100)!important;color:rgb(255, 255, 255)!important;}#mermaid-svg .devline tspan{fill:rgb(255, 255, 255)!important;}#mermaid-svg .mainline&gt;*{fill:rgb(201, 122, 31)!important;stroke:rgb(201, 122, 31)!important;color:rgb(255, 255, 255)!important;}#mermaid-svg .mainline span{fill:rgb(201, 122, 31)!important;stroke:rgb(201, 122, 31)!important;color:rgb(255, 255, 255)!important;}#mermaid-svg .mainline tspan{fill:rgb(255, 255, 255)!important;}#mermaid-svg .automation&gt;*{fill:rgb(63, 99, 168)!important;stroke:rgb(63, 99, 168)!important;color:rgb(255, 255, 255)!important;}#mermaid-svg .automation span{fill:rgb(63, 99, 168)!important;stroke:rgb(63, 99, 168)!important;color:rgb(255, 255, 255)!important;}#mermaid-svg .automation tspan{fill:rgb(255, 255, 255)!important;}#mermaid-svg .dim&gt;*{fill:rgb(238, 241, 244)!important;stroke:rgb(199, 208, 214)!important;color:rgb(124, 135, 145)!important;}#mermaid-svg .dim span{fill:rgb(238, 241, 244)!important;stroke:rgb(199, 208, 214)!important;color:rgb(124, 135, 145)!important;}#mermaid-svg .dim tspan{fill:rgb(124, 135, 145)!important;}</style><g><marker id="mermaid-svg_flowchart-v2-pointEnd" class="marker flowchart-v2" viewBox="0 0 10 10" refX="5" refY="5" markerUnits="userSpaceOnUse" markerWidth="8" markerHeight="8" orient="auto"><path d="M 0 0 L 10 5 L 0 10 z" class="arrowMarkerPath" style="stroke-width: 1; stroke-dasharray: 1, 0;"/></marker><marker id="mermaid-svg_flowchart-v2-pointStart" class="marker flowchart-v2" viewBox="0 0 10 10" refX="4.5" refY="5" markerUnits="userSpaceOnUse" markerWidth="8" markerHeight="8" orient="auto"><path d="M 0 5 L 10 10 L 10 0 z" class="arrowMarkerPath" style="stroke-width: 1; stroke-dasharray: 1, 0;"/></marker><marker id="mermaid-svg_flowchart-v2-pointEnd-margin" class="marker flowchart-v2" viewBox="0 0 11.5 14" refX="11.5" refY="7" markerUnits="userSpaceOnUse" markerWidth="10.5" markerHeight="14" orient="auto"><path d="M 0 0 L 11.5 7 L 0 14 z" class="arrowMarkerPath" style="stroke-width: 0; stroke-dasharray: 1, 0;"/></marker><marker id="mermaid-svg_flowchart-v2-pointStart-margin" class="marker flowchart-v2" viewBox="0 0 11.5 14" refX="1" refY="7" markerUnits="userSpaceOnUse" markerWidth="11.5" markerHeight="14" orient="auto"><polygon points="0,7 11.5,14 11.5,0" class="arrowMarkerPath" style="stroke-width: 0; stroke-dasharray: 1, 0;"/></marker><marker id="mermaid-svg_flowchart-v2-circleEnd" class="marker flowchart-v2" viewBox="0 0 10 10" refX="11" refY="5" markerUnits="userSpaceOnUse" markerWidth="11" markerHeight="11" orient="auto"><circle cx="5" cy="5" r="5" class="arrowMarkerPath" style="stroke-width: 1; stroke-dasharray: 1, 0;"/></marker><marker id="mermaid-svg_flowchart-v2-circleStart" class="marker flowchart-v2" viewBox="0 0 10 10" refX="-1" refY="5" markerUnits="userSpaceOnUse" markerWidth="11" markerHeight="11" orient="auto"><circle cx="5" cy="5" r="5" class="arrowMarkerPath" style="stroke-width: 1; stroke-dasharray: 1, 0;"/></marker><marker id="mermaid-svg_flowchart-v2-circleEnd-margin" class="marker flowchart-v2" viewBox="0 0 10 10" refY="5" refX="12.25" markerUnits="userSpaceOnUse" markerWidth="14" markerHeight="14" orient="auto"><circle cx="5" cy="5" r="5" class="arrowMarkerPath" style="stroke-width: 0; stroke-dasharray: 1, 0;"/></marker><marker id="mermaid-svg_flowchart-v2-circleStart-margin" class="marker flowchart-v2" viewBox="0 0 10 10" refX="-2" refY="5" markerUnits="userSpaceOnUse" markerWidth="14" markerHeight="14" orient="auto"><circle cx="5" cy="5" r="5" class="arrowMarkerPath" style="stroke-width: 0; stroke-dasharray: 1, 0;"/></marker><marker id="mermaid-svg_flowchart-v2-crossEnd" class="marker cross flowchart-v2" viewBox="0 0 11 11" refX="12" refY="5.2" markerUnits="userSpaceOnUse" markerWidth="11" markerHeight="11" orient="auto"><path d="M 1,1 l 9,9 M 10,1 l -9,9" class="arrowMarkerPath" style="stroke-width: 2; stroke-dasharray: 1, 0;"/></marker><marker id="mermaid-svg_flowchart-v2-crossStart" class="marker cross flowchart-v2" viewBox="0 0 11 11" refX="-1" refY="5.2" markerUnits="userSpaceOnUse" markerWidth="11" markerHeight="11" orient="auto"><path d="M 1,1 l 9,9 M 10,1 l -9,9" class="arrowMarkerPath" style="stroke-width: 2; stroke-dasharray: 1, 0;"/></marker><marker id="mermaid-svg_flowchart-v2-crossEnd-margin" class="marker cross flowchart-v2" viewBox="0 0 15 15" refX="17.7" refY="7.5" markerUnits="userSpaceOnUse" markerWidth="12" markerHeight="12" orient="auto"><path d="M 1,1 L 14,14 M 1,14 L 14,1" class="arrowMarkerPath" style="stroke-width: 2.5;"/></marker><marker id="mermaid-svg_flowchart-v2-crossStart-margin" class="marker cross flowchart-v2" viewBox="0 0 15 15" refX="-3.5" refY="7.5" markerUnits="userSpaceOnUse" markerWidth="12" markerHeight="12" orient="auto"><path d="M 1,1 L 14,14 M 1,14 L 14,1" class="arrowMarkerPath" style="stroke-width: 2.5; stroke-dasharray: 1, 0;"/></marker><g class="root"><g class="clusters"/><g class="edgePaths"><path d="M150.734,97.68L154.901,97.68C159.068,97.68,167.401,97.68,175.068,97.68C182.734,97.68,189.734,97.68,193.234,97.68L196.734,97.68" id="mermaid-svg-L_A_B_0" class=" edge-thickness-normal edge-pattern-solid edge-thickness-normal edge-pattern-solid flowchart-link" style=";" data-edge="true" data-et="edge" data-id="L_A_B_0" data-points="W3sieCI6MTUwLjczNDM3NSwieSI6OTcuNjc5Njg3NX0seyJ4IjoxNzUuNzM0Mzc1LCJ5Ijo5Ny42Nzk2ODc1fSx7IngiOjIwMC43MzQzNzUsInkiOjk3LjY3OTY4NzV9XQ==" data-look="classic" marker-end="url(#mermaid-svg_flowchart-v2-pointEnd)"/><path d="M354.061,71.647L364.642,67.319C375.223,62.991,396.385,54.335,417.73,50.008C439.076,45.68,460.604,45.68,471.368,45.68L482.133,45.68" id="mermaid-svg-L_B_Z_0" class=" edge-thickness-normal edge-pattern-solid edge-thickness-normal edge-pattern-solid flowchart-link" style=";" data-edge="true" data-et="edge" data-id="L_B_Z_0" data-points="W3sieCI6MzU0LjA2MDg2NTg3OTQ1Mzk2LCJ5Ijo3MS42NDY4MDMzNzk0NTM5N30seyJ4Ijo0MTcuNTQ2ODc1LCJ5Ijo0NS42Nzk2ODc1fSx7IngiOjQ4Ni4xMzI4MTI1LCJ5Ijo0NS42Nzk2ODc1fV0=" data-look="classic" marker-end="url(#mermaid-svg_flowchart-v2-pointEnd)"/><path d="M354.061,123.713L364.642,128.04C375.223,132.368,396.385,141.024,412.541,145.352C428.698,149.68,439.849,149.68,445.424,149.68L451,149.68" id="mermaid-svg-L_B_C_0" class=" edge-thickness-normal edge-pattern-solid edge-thickness-normal edge-pattern-solid flowchart-link" style=";" data-edge="true" data-et="edge" data-id="L_B_C_0" data-points="W3sieCI6MzU0LjA2MDg2NTg3OTQ1Mzk2LCJ5IjoxMjMuNzEyNTcxNjIwNTQ2MDN9LHsieCI6NDE3LjU0Njg3NSwieSI6MTQ5LjY3OTY4NzV9LHsieCI6NDU1LCJ5IjoxNDkuNjc5Njg3NX1d" data-look="classic" marker-end="url(#mermaid-svg_flowchart-v2-pointEnd)"/><path d="M605.719,149.68L609.885,149.68C614.052,149.68,622.385,149.68,630.052,149.68C637.719,149.68,644.719,149.68,648.219,149.68L651.719,149.68" id="mermaid-svg-L_C_D_0" class=" edge-thickness-normal edge-pattern-solid edge-thickness-normal edge-pattern-solid flowchart-link" style=";" data-edge="true" data-et="edge" data-id="L_C_D_0" data-points="W3sieCI6NjA1LjcxODc1LCJ5IjoxNDkuNjc5Njg3NX0seyJ4Ijo2MzAuNzE4NzUsInkiOjE0OS42Nzk2ODc1fSx7IngiOjY1NS43MTg3NSwieSI6MTQ5LjY3OTY4NzV9XQ==" data-look="classic" marker-end="url(#mermaid-svg_flowchart-v2-pointEnd)"/><path d="M915.719,149.68L919.885,149.68C924.052,149.68,932.385,149.68,940.052,149.68C947.719,149.68,954.719,149.68,958.219,149.68L961.719,149.68" id="mermaid-svg-L_D_E_0" class=" edge-thickness-normal edge-pattern-solid edge-thickness-normal edge-pattern-solid flowchart-link" style=";" data-edge="true" data-et="edge" data-id="L_D_E_0" data-points="W3sieCI6OTE1LjcxODc1LCJ5IjoxNDkuNjc5Njg3NX0seyJ4Ijo5NDAuNzE4NzUsInkiOjE0OS42Nzk2ODc1fSx7IngiOjk2NS43MTg3NSwieSI6MTQ5LjY3OTY4NzV9XQ==" data-look="classic" marker-end="url(#mermaid-svg_flowchart-v2-pointEnd)"/><path d="M1207.75,149.68L1211.917,149.68C1216.083,149.68,1224.417,149.68,1232.083,149.68C1239.75,149.68,1246.75,149.68,1250.25,149.68L1253.75,149.68" id="mermaid-svg-L_E_F_0" class=" edge-thickness-normal edge-pattern-solid edge-thickness-normal edge-pattern-solid flowchart-link" style=";" data-edge="true" data-et="edge" data-id="L_E_F_0" data-points="W3sieCI6MTIwNy43NSwieSI6MTQ5LjY3OTY4NzV9LHsieCI6MTIzMi43NSwieSI6MTQ5LjY3OTY4NzV9LHsieCI6MTI1Ny43NSwieSI6MTQ5LjY3OTY4NzV9XQ==" data-look="classic" marker-end="url(#mermaid-svg_flowchart-v2-pointEnd)"/><path d="M1444.938,149.68L1449.104,149.68C1453.271,149.68,1461.604,149.68,1469.271,149.68C1476.938,149.68,1483.938,149.68,1487.438,149.68L1490.938,149.68" id="mermaid-svg-L_F_G_0" class=" edge-thickness-normal edge-pattern-solid edge-thickness-normal edge-pattern-solid flowchart-link" style=";" data-edge="true" data-et="edge" data-id="L_F_G_0" data-points="W3sieCI6MTQ0NC45Mzc1LCJ5IjoxNDkuNjc5Njg3NX0seyJ4IjoxNDY5LjkzNzUsInkiOjE0OS42Nzk2ODc1fSx7IngiOjE0OTQuOTM3NSwieSI6MTQ5LjY3OTY4NzV9XQ==" data-look="classic" marker-end="url(#mermaid-svg_flowchart-v2-pointEnd)"/><path d="M1740.141,149.68L1744.307,149.68C1748.474,149.68,1756.807,149.68,1764.474,149.68C1772.141,149.68,1779.141,149.68,1782.641,149.68L1786.141,149.68" id="mermaid-svg-L_G_H_0" class=" edge-thickness-normal edge-pattern-solid edge-thickness-normal edge-pattern-solid flowchart-link" style=";" data-edge="true" data-et="edge" data-id="L_G_H_0" data-points="W3sieCI6MTc0MC4xNDA2MjUsInkiOjE0OS42Nzk2ODc1fSx7IngiOjE3NjUuMTQwNjI1LCJ5IjoxNDkuNjc5Njg3NX0seyJ4IjoxNzkwLjE0MDYyNSwieSI6MTQ5LjY3OTY4NzV9XQ==" data-look="classic" marker-end="url(#mermaid-svg_flowchart-v2-pointEnd)"/><path d="M1885.858,128.241L1896.414,122.147C1906.971,116.054,1928.083,103.867,1945.772,97.773C1963.461,91.68,1977.727,91.68,1984.859,91.68L1991.992,91.68" id="mermaid-svg-L_H_I_0" class=" edge-thickness-normal edge-pattern-solid edge-thickness-normal edge-pattern-solid flowchart-link" style=";" data-edge="true" data-et="edge" data-id="L_H_I_0" data-points="W3sieCI6MTg4NS44NTgxNzY0NTQyNzY2LCJ5IjoxMjguMjQwOTg4OTU0Mjc2NTZ9LHsieCI6MTk0OS4xOTUzMTI1LCJ5Ijo5MS42Nzk2ODc1fSx7IngiOjE5OTUuOTkyMTg3NSwieSI6OTEuNjc5Njg3NX1d" data-look="classic" marker-end="url(#mermaid-svg_flowchart-v2-pointEnd)"/><path d="M1885.858,171.118L1896.414,177.212C1906.971,183.305,1928.083,195.493,1944.956,201.586C1961.828,207.68,1974.461,207.68,1980.777,207.68L1987.094,207.68" id="mermaid-svg-L_H_J_0" class=" edge-thickness-normal edge-pattern-solid edge-thickness-normal edge-pattern-solid flowchart-link" style=";" data-edge="true" data-et="edge" data-id="L_H_J_0" data-points="W3sieCI6MTg4NS44NTgxNzY0NTQyNzY2LCJ5IjoxNzEuMTE4Mzg2MDQ1NzIzNDR9LHsieCI6MTk0OS4xOTUzMTI1LCJ5IjoyMDcuNjc5Njg3NX0seyJ4IjoxOTkxLjA5Mzc1LCJ5IjoyMDcuNjc5Njg3NX1d" data-look="classic" marker-end="url(#mermaid-svg_flowchart-v2-pointEnd)"/><path d="M2210.297,207.68L2214.464,207.68C2218.63,207.68,2226.964,207.68,2234.714,207.75C2242.464,207.82,2249.631,207.961,2253.214,208.031L2256.798,208.101" id="mermaid-svg-L_J_K_0" class=" edge-thickness-normal edge-pattern-solid edge-thickness-normal edge-pattern-solid flowchart-link" style=";" data-edge="true" data-et="edge" data-id="L_J_K_0" data-points="W3sieCI6MjIxMC4yOTY4NzUsInkiOjIwNy42Nzk2ODc1fSx7IngiOjIyMzUuMjk2ODc1LCJ5IjoyMDcuNjc5Njg3NX0seyJ4IjoyMjYwLjc5Njg3NTAwMDAzMSwieSI6MjA4LjE3OTY4NzUwMDAwMDAzfV0=" data-look="classic" marker-end="url(#mermaid-svg_flowchart-v2-pointEnd)"/></g><g class="edgeLabels"><g class="edgeLabel"><g class="label" data-id="L_A_B_0" transform="translate(0, 0)"><foreignObject width="0" height="0"><div xmlns="http://www.w3.org/1999/xhtml" class="labelBkg" style="display: table-cell; white-space: nowrap; line-height: 1.5; max-width: 200px; text-align: center;"><span class="edgeLabel "></span></div></foreignObject></g></g><g class="edgeLabel" transform="translate(417.546875, 45.6796875)"><g class="label" data-id="L_B_Z_0" transform="translate(-8.8984375, -12)"><foreignObject width="17.796875" height="24"><div xmlns="http://www.w3.org/1999/xhtml" class="labelBkg" style="display: table-cell; white-space: nowrap; line-height: 1.5; max-width: 200px; text-align: center;"><span class="edgeLabel "><p>no</p></span></div></foreignObject></g></g><g class="edgeLabel" transform="translate(417.546875, 149.6796875)"><g class="label" data-id="L_B_C_0" transform="translate(-12.453125, -12)"><foreignObject width="24.90625" height="24"><div xmlns="http://www.w3.org/1999/xhtml" class="labelBkg" style="display: table-cell; white-space: nowrap; line-height: 1.5; max-width: 200px; text-align: center;"><span class="edgeLabel "><p>yes</p></span></div></foreignObject></g></g><g class="edgeLabel"><g class="label" data-id="L_C_D_0" transform="translate(0, 0)"><foreignObject width="0" height="0"><div xmlns="http://www.w3.org/1999/xhtml" class="labelBkg" style="display: table-cell; white-space: nowrap; line-height: 1.5; max-width: 200px; text-align: center;"><span class="edgeLabel "></span></div></foreignObject></g></g><g class="edgeLabel"><g class="label" data-id="L_D_E_0" transform="translate(0, 0)"><foreignObject width="0" height="0"><div xmlns="http://www.w3.org/1999/xhtml" class="labelBkg" style="display: table-cell; white-space: nowrap; line-height: 1.5; max-width: 200px; text-align: center;"><span class="edgeLabel "></span></div></foreignObject></g></g><g class="edgeLabel"><g class="label" data-id="L_E_F_0" transform="translate(0, 0)"><foreignObject width="0" height="0"><div xmlns="http://www.w3.org/1999/xhtml" class="labelBkg" style="display: table-cell; white-space: nowrap; line-height: 1.5; max-width: 200px; text-align: center;"><span class="edgeLabel "></span></div></foreignObject></g></g><g class="edgeLabel"><g class="label" data-id="L_F_G_0" transform="translate(0, 0)"><foreignObject width="0" height="0"><div xmlns="http://www.w3.org/1999/xhtml" class="labelBkg" style="display: table-cell; white-space: nowrap; line-height: 1.5; max-width: 200px; text-align: center;"><span class="edgeLabel "></span></div></foreignObject></g></g><g class="edgeLabel"><g class="label" data-id="L_G_H_0" transform="translate(0, 0)"><foreignObject width="0" height="0"><div xmlns="http://www.w3.org/1999/xhtml" class="labelBkg" style="display: table-cell; white-space: nowrap; line-height: 1.5; max-width: 200px; text-align: center;"><span class="edgeLabel "></span></div></foreignObject></g></g><g class="edgeLabel" transform="translate(1949.1953125, 91.6796875)"><g class="label" data-id="L_H_I_0" transform="translate(-13.7890625, -12)"><foreignObject width="27.578125" height="24"><div xmlns="http://www.w3.org/1999/xhtml" class="labelBkg" style="display: table-cell; white-space: nowrap; line-height: 1.5; max-width: 200px; text-align: center;"><span class="edgeLabel "><p>true</p></span></div></foreignObject></g></g><g class="edgeLabel" transform="translate(1949.1953125, 207.6796875)"><g class="label" data-id="L_H_J_0" transform="translate(-16.8984375, -12)"><foreignObject width="33.796875" height="24"><div xmlns="http://www.w3.org/1999/xhtml" class="labelBkg" style="display: table-cell; white-space: nowrap; line-height: 1.5; max-width: 200px; text-align: center;"><span class="edgeLabel "><p>false</p></span></div></foreignObject></g></g><g class="edgeLabel"><g class="label" data-id="L_J_K_0" transform="translate(0, 0)"><foreignObject width="0" height="0"><div xmlns="http://www.w3.org/1999/xhtml" class="labelBkg" style="display: table-cell; white-space: nowrap; line-height: 1.5; max-width: 200px; text-align: center;"><span class="edgeLabel "></span></div></foreignObject></g></g></g><g class="nodes"><g class="node default automation " id="mermaid-svg-flowchart-A-0" data-look="classic" transform="translate(79.3671875, 97.6796875)"><rect class="basic label-container" style="fill:#3f63a8 !important;stroke:#3f63a8 !important" x="-71.3671875" y="-27" width="142.734375" height="54"/><g class="label" style="color:#ffffff !important" transform="translate(-41.3671875, -12)"><rect/><foreignObject width="82.734375" height="24"><div style="color: rgb(255, 255, 255) !important; display: table-cell; white-space: nowrap; line-height: 1.5; max-width: 200px; text-align: center;" xmlns="http://www.w3.org/1999/xhtml"><span style="color:#ffffff !important" class="nodeLabel "><p>push to dev</p></span></div></foreignObject></g></g><g class="node default  " id="mermaid-svg-flowchart-B-1" data-look="classic" transform="translate(290.4140625, 97.6796875)"><polygon points="89.6796875,0 179.359375,-89.6796875 89.6796875,-179.359375 0,-89.6796875" class="label-container" transform="translate(-89.1796875, 89.6796875)"/><g class="label" style="" transform="translate(-50.6796875, -24)"><rect/><foreignObject width="101.359375" height="48"><div xmlns="http://www.w3.org/1999/xhtml" style="display: table-cell; white-space: nowrap; line-height: 1.5; max-width: 200px; text-align: center;"><span class="nodeLabel "><p>commits since<br />last tag?</p></span></div></foreignObject></g></g><g class="node default dim " id="mermaid-svg-flowchart-Z-3" data-look="classic" transform="translate(530.359375, 45.6796875)"><rect class="basic label-container" style="fill:#eef1f4 !important;stroke:#c7d0d6 !important" x="-44.2265625" y="-27" width="88.453125" height="54"/><g class="label" style="color:#7c8791 !important" transform="translate(-14.2265625, -12)"><rect/><foreignObject width="28.453125" height="24"><div style="color: rgb(124, 135, 145) !important; display: table-cell; white-space: nowrap; line-height: 1.5; max-width: 200px; text-align: center;" xmlns="http://www.w3.org/1999/xhtml"><span style="color:#7c8791 !important" class="nodeLabel "><p>skip</p></span></div></foreignObject></g></g><g class="node default  " id="mermaid-svg-flowchart-C-5" data-look="classic" transform="translate(530.359375, 149.6796875)"><rect class="basic label-container" style="" x="-75.359375" y="-27" width="150.71875" height="54"/><g class="label" style="" transform="translate(-45.359375, -12)"><rect/><foreignObject width="90.71875" height="24"><div xmlns="http://www.w3.org/1999/xhtml" style="display: table-cell; white-space: nowrap; line-height: 1.5; max-width: 200px; text-align: center;"><span class="nodeLabel "><p>yarn prepare</p></span></div></foreignObject></g></g><g class="node default  " id="mermaid-svg-flowchart-D-7" data-look="classic" transform="translate(785.71875, 149.6796875)"><rect class="basic label-container" style="" x="-130" y="-51" width="260" height="102"/><g class="label" style="" transform="translate(-100, -36)"><rect/><foreignObject width="200" height="72"><div xmlns="http://www.w3.org/1999/xhtml" style="display: table; white-space: break-spaces; line-height: 1.5; max-width: 200px; text-align: center; width: 200px;"><span class="nodeLabel "><p>compute beta version<br />base + '-beta.&lt;run_number&gt;'</p></span></div></foreignObject></g></g><g class="node default  " id="mermaid-svg-flowchart-E-9" data-look="classic" transform="translate(1086.734375, 149.6796875)"><rect class="basic label-container" style="" x="-121.015625" y="-39" width="242.03125" height="78"/><g class="label" style="" transform="translate(-91.015625, -24)"><rect/><foreignObject width="182.03125" height="48"><div xmlns="http://www.w3.org/1999/xhtml" style="display: table-cell; white-space: nowrap; line-height: 1.5; max-width: 200px; text-align: center;"><span class="nodeLabel "><p>bump package.json<br />(local only, never pushed)</p></span></div></foreignObject></g></g><g class="node default automation " id="mermaid-svg-flowchart-F-11" data-look="classic" transform="translate(1351.34375, 149.6796875)"><rect class="basic label-container" style="fill:#3f63a8 !important;stroke:#3f63a8 !important" x="-93.59375" y="-39" width="187.1875" height="78"/><g class="label" style="color:#ffffff !important" transform="translate(-63.59375, -24)"><rect/><foreignObject width="127.1875" height="48"><div style="color: rgb(255, 255, 255) !important; display: table-cell; white-space: nowrap; line-height: 1.5; max-width: 200px; text-align: center;" xmlns="http://www.w3.org/1999/xhtml"><span style="color:#ffffff !important" class="nodeLabel "><p>Node 22 (floating)<br />for OIDC publish</p></span></div></foreignObject></g></g><g class="node default automation " id="mermaid-svg-flowchart-G-13" data-look="classic" transform="translate(1617.5390625, 149.6796875)"><rect class="basic label-container" style="fill:#3f63a8 !important;stroke:#3f63a8 !important" x="-122.6015625" y="-27" width="245.203125" height="54"/><g class="label" style="color:#ffffff !important" transform="translate(-92.6015625, -12)"><rect/><foreignObject width="185.203125" height="24"><div style="color: rgb(255, 255, 255) !important; display: table-cell; white-space: nowrap; line-height: 1.5; max-width: 200px; text-align: center;" xmlns="http://www.w3.org/1999/xhtml"><span style="color:#ffffff !important" class="nodeLabel "><p>npm install -g npm@latest</p></span></div></foreignObject></g></g><g class="node default  " id="mermaid-svg-flowchart-H-15" data-look="classic" transform="translate(1848.71875, 149.6796875)"><polygon points="58.578125,0 117.15625,-58.578125 58.578125,-117.15625 0,-58.578125" class="label-container" transform="translate(-58.078125, 58.578125)"/><g class="label" style="" transform="translate(-31.578125, -12)"><rect/><foreignObject width="63.15625" height="24"><div xmlns="http://www.w3.org/1999/xhtml" style="display: table-cell; white-space: nowrap; line-height: 1.5; max-width: 200px; text-align: center;"><span class="nodeLabel "><p>dry_run?</p></span></div></foreignObject></g></g><g class="node default dim " id="mermaid-svg-flowchart-I-17" data-look="classic" transform="translate(2100.6953125, 91.6796875)"><rect class="basic label-container" style="fill:#eef1f4 !important;stroke:#c7d0d6 !important" x="-104.703125" y="-39" width="209.40625" height="78"/><g class="label" style="color:#7c8791 !important" transform="translate(-74.703125, -24)"><rect/><foreignObject width="149.40625" height="48"><div style="color: rgb(124, 135, 145) !important; display: table-cell; white-space: nowrap; line-height: 1.5; max-width: 200px; text-align: center;" xmlns="http://www.w3.org/1999/xhtml"><span style="color:#7c8791 !important" class="nodeLabel "><p>stop — build verified,<br />nothing published</p></span></div></foreignObject></g></g><g class="node default automation " id="mermaid-svg-flowchart-J-19" data-look="classic" transform="translate(2100.6953125, 207.6796875)"><rect class="basic label-container" style="fill:#3f63a8 !important;stroke:#3f63a8 !important" x="-109.6015625" y="-27" width="219.203125" height="54"/><g class="label" style="color:#ffffff !important" transform="translate(-79.6015625, -12)"><rect/><foreignObject width="159.203125" height="24"><div style="color: rgb(255, 255, 255) !important; display: table-cell; white-space: nowrap; line-height: 1.5; max-width: 200px; text-align: center;" xmlns="http://www.w3.org/1999/xhtml"><span style="color:#ffffff !important" class="nodeLabel "><p>npm publish --tag beta</p></span></div></foreignObject></g></g><g class="node default devline " id="mermaid-svg-flowchart-K-21" data-look="classic" transform="translate(2369.8415451049805, 207.6796875)"><g class="basic label-container outer-path"><path d="M-90.0546875 -19.5 C-33.52880048303506 -19.5, 22.997086533929874 -19.5, 90.0546875 -19.5 C90.0546875 -19.5, 90.0546875 -19.5, 90.0546875 -19.5 C90.41478948940211 -19.488452230095877, 90.77489147880421 -19.476904460191754, 91.3040567896239 -19.45993515863156 C91.58752521904118 -19.432589300166338, 91.87099364845847 -19.405243441701117, 92.54829215284786 -19.3399052695533 C92.91888880783281 -19.279990076395315, 93.28948546281777 -19.22007488323733, 93.78228075967675 -19.140403561325776 C94.25907226066059 -19.031579012581528, 94.73586376164444 -18.922754463837283, 95.00095188623538 -18.862249829261074 C95.45046759139458 -18.728835927525914, 95.89998329655378 -18.59542202579075, 96.1992977514606 -18.50658706670804 C96.65239456457549 -18.339843251100735, 97.10549137769038 -18.173099435493427, 97.3723940951478 -18.074876768247425 C97.72980155395157 -17.916663088350564, 98.08720901275535 -17.7584494084537, 98.51542041279238 -17.568892924097174 C98.93253632829537 -17.35128381815476, 99.34965224379837 -17.133674712212343, 99.62367976407678 -16.990714730406097 C99.85729159227664 -16.849097867295857, 100.0909034204765 -16.707481004185617, 100.6926180736057 -16.342718045390892 C100.93299382907449 -16.175042324074603, 101.1733695845433 -16.007366602758317, 101.71784284457871 -15.627565626425154 C102.06836398344333 -15.348034345939865, 102.41888512230796 -15.068503065454577, 102.69514120850187 -14.848196188198123 C103.0035326310705 -14.568123257811205, 103.31192405363913 -14.288050327424285, 103.62049723676799 -14.007812326905688 C103.88172108058832 -13.73807726128476, 104.14294492440865 -13.468342195663832, 104.49010844296865 -13.10986736009568 C104.71540695843218 -12.845218903983515, 104.94070547389572 -12.580570447871349, 105.30040140812658 -12.158051136245305 C105.5862526924443 -11.775036456847282, 105.87210397676202 -11.39202177744926, 106.04804646464063 -11.156274872382312 C106.28372565658316 -10.794208344834304, 106.51940484852568 -10.432141817286297, 106.72997137860425 -10.108655082055241 C106.96308795890705 -9.694732988114145, 107.19620453920987 -9.28081089417305, 107.3433739742735 -9.019496659696287 C107.50090862926194 -8.692372577911163, 107.65844328425037 -8.365248496126037, 107.88573364880834 -7.893275190886684 C108.01974851797259 -7.562255873049762, 108.15376338713683 -7.23123655521284, 108.35482172997033 -6.734618561215508 C108.48418743338328 -6.344989674161403, 108.61355313679624 -5.955360787107298, 108.74871063421489 -5.548287939305138 C108.84731097715616 -5.172282098011148, 108.94591132009741 -4.796276256717157, 109.06578178754556 -4.339158212148133 C109.15112211676269 -3.9009536583030857, 109.23646244597984 -3.4627491044580383, 109.30473227658177 -3.1121979531509023 C109.33814117129802 -2.8530851630642178, 109.37155006601425 -2.5939723729775332, 109.46458020250937 -1.872449005199798 C109.48261939144474 -1.5914740765600257, 109.50065858038013 -1.3104991479202537, 109.54466871591342 -0.6250057626472757 C109.54466871591342 -0.37333903402699326, 109.54466871591342 -0.12167230540671081, 109.54466871591342 0.625005762647271 C109.52668543792872 0.9051098330996576, 109.50870215994402 1.1852139035520444, 109.46458020250937 1.8724490051997846 C109.40558430348537 2.3300095479718914, 109.34658840446139 2.787570090743998, 109.30473227658177 3.1121979531508885 C109.24466911211786 3.420609608318749, 109.18460594765396 3.7290212634866093, 109.06578178754556 4.339158212148129 C108.94005128873142 4.818623096069335, 108.81432078991728 5.298087979990542, 108.74871063421489 5.548287939305125 C108.60567623854965 5.979084749612731, 108.46264184288441 6.409881559920337, 108.35482172997033 6.734618561215495 C108.17826087611303 7.170727283814918, 108.00170002225572 7.606836006414341, 107.88573364880834 7.893275190886679 C107.76830538129056 8.137117500949778, 107.65087711377278 8.380959811012877, 107.3433739742735 9.019496659696284 C107.21989912338397 9.238738760635103, 107.09642427249443 9.457980861573922, 106.72997137860425 10.108655082055236 C106.5781044661822 10.341963441511504, 106.42623755376015 10.575271800967773, 106.04804646464065 11.156274872382301 C105.79358033294176 11.497236306517305, 105.53911420124288 11.838197740652308, 105.30040140812659 12.158051136245302 C105.00407715727108 12.506130462627707, 104.70775290641558 12.854209789010113, 104.49010844296866 13.10986736009567 C104.30221620614002 13.303881520860775, 104.11432396931137 13.49789568162588, 103.62049723676799 14.007812326905684 C103.42573411821957 14.184691038021626, 103.23097099967116 14.36156974913757, 102.6951412085019 14.848196188198111 C102.42557157057865 15.063170800892559, 102.15600193265541 15.278145413587007, 101.71784284457871 15.627565626425152 C101.37878935763995 15.864074661524747, 101.03973587070118 16.10058369662434, 100.6926180736057 16.34271804539089 C100.40249511754637 16.518592286305793, 100.11237216148703 16.694466527220698, 99.62367976407678 16.990714730406093 C99.2373053361195 17.192286021986774, 98.85093090816223 17.393857313567455, 98.51542041279238 17.56889292409717 C98.13567947141453 17.73699297423035, 97.75593853003667 17.905093024363534, 97.3723940951478 18.07487676824742 C96.98439057705237 18.217665649571746, 96.59638705895692 18.36045453089607, 96.19929775146062 18.506587066708033 C95.87122317325634 18.60395787942046, 95.54314859505207 18.701328692132886, 95.00095188623541 18.86224982926107 C94.60119618263732 18.953491459957576, 94.20144047903925 19.04473309065408, 93.78228075967677 19.140403561325773 C93.52164219161419 19.182541583727847, 93.2610036235516 19.22467960612992, 92.54829215284788 19.3399052695533 C92.25711838936542 19.367994452328766, 91.96594462588295 19.396083635104237, 91.3040567896239 19.45993515863156 C90.8906004733703 19.473193897949912, 90.47714415711668 19.48645263726827, 90.0546875 19.5 C90.0546875 19.5, 90.0546875 19.5, 90.0546875 19.5 C42.35257483514166 19.5, -5.349537829716681 19.5, -90.0546875 19.5 C-90.55422136419686 19.48398092125889, -91.05375522839373 19.467961842517777, -91.3040567896239 19.45993515863156 C-91.6710493980392 19.42453182307092, -92.0380420064545 19.389128487510284, -92.54829215284786 19.3399052695533 C-93.00239139013766 19.266490026460467, -93.45649062742744 19.19307478336763, -93.78228075967675 19.140403561325773 C-94.16904893461316 19.052126249294748, -94.55581710954958 18.963848937263727, -95.00095188623538 18.862249829261074 C-95.42124103818357 18.73751021510563, -95.84153019013176 18.61277060095019, -96.19929775146059 18.506587066708043 C-96.63985723280835 18.344457105084864, -97.08041671415612 18.182327143461684, -97.3723940951478 18.074876768247425 C-97.81502545177528 17.878936996861114, -98.25765680840277 17.682997225474804, -98.51542041279238 17.568892924097174 C-98.75327546660213 17.444804094878055, -98.9911305204119 17.32071526565894, -99.62367976407678 16.990714730406097 C-99.89808283194178 16.824369978094914, -100.17248589980677 16.65802522578373, -100.69261807360569 16.3427180453909 C-101.01933715760316 16.114812955835454, -101.34605624160064 15.88690786628001, -101.71784284457871 15.627565626425156 C-101.97849967267862 15.419698742384977, -102.23915650077853 15.2118318583448, -102.69514120850187 14.848196188198125 C-103.04839352511542 14.527381780793817, -103.40164584172898 14.206567373389511, -103.62049723676797 14.007812326905697 C-103.91703346394472 13.701614326268675, -104.21356969112148 13.395416325631654, -104.49010844296865 13.109867360095677 C-104.73959243963027 12.816809261575365, -104.9890764362919 12.523751163055053, -105.30040140812658 12.158051136245307 C-105.4683778429965 11.932978016487626, -105.63635427786645 11.707904896729945, -106.04804646464063 11.156274872382316 C-106.30806040511268 10.756823636298023, -106.56807434558473 10.357372400213729, -106.72997137860425 10.108655082055249 C-106.89026365779927 9.82403990899116, -107.05055593699429 9.539424735927073, -107.3433739742735 9.019496659696289 C-107.5239197868234 8.64458941687489, -107.7044655993733 8.26968217405349, -107.88573364880834 7.893275190886686 C-108.01612324606087 7.571210364761559, -108.14651284331342 7.249145538636433, -108.35482172997033 6.73461856121551 C-108.50948630122436 6.2687935150512715, -108.6641508724784 5.802968468887034, -108.74871063421489 5.5482879393051325 C-108.8490249832052 5.16574585009122, -108.9493393321955 4.783203760877307, -109.06578178754556 4.339158212148136 C-109.12303143939269 4.045193349631356, -109.1802810912398 3.751228487114577, -109.30473227658177 3.112197953150904 C-109.3392703660389 2.8443273516386487, -109.37380845549602 2.576456750126393, -109.46458020250937 1.872449005199809 C-109.49108848652615 1.4595610845366265, -109.51759677054294 1.046673163873444, -109.54466871591342 0.6250057626472781 C-109.54466871591342 0.37215948145353583, -109.54466871591342 0.11931320025979353, -109.54466871591342 -0.6250057626472687 C-109.52322416823864 -0.959021902409117, -109.50177962056388 -1.2930380421709653, -109.46458020250937 -1.8724490051997822 C-109.41313822656633 -2.2714228122468674, -109.36169625062328 -2.6703966192939523, -109.30473227658177 -3.112197953150895 C-109.21556975011117 -3.57002868207079, -109.12640722364057 -4.0278594109906845, -109.06578178754556 -4.339158212148126 C-108.96604781836866 -4.7194870615953075, -108.86631384919177 -5.099815911042488, -108.74871063421489 -5.548287939305123 C-108.59262914319558 -6.018380522046834, -108.43654765217627 -6.488473104788546, -108.35482172997033 -6.734618561215485 C-108.22561445729191 -7.053763022783844, -108.0964071846135 -7.372907484352204, -107.88573364880834 -7.893275190886676 C-107.69297864531453 -8.293535079937973, -107.5002236418207 -8.69379496898927, -107.3433739742735 -9.019496659696282 C-107.21132317626692 -9.25396622315024, -107.07927237826033 -9.488435786604196, -106.72997137860425 -10.108655082055243 C-106.57539722398764 -10.346122492518683, -106.42082306937101 -10.583589902982123, -106.04804646464063 -11.156274872382308 C-105.86559622427743 -11.400741572910182, -105.68314598391422 -11.645208273438053, -105.30040140812659 -12.158051136245302 C-104.99730415405637 -12.514086417598513, -104.69420689998616 -12.870121698951722, -104.49010844296866 -13.10986736009567 C-104.19879555614833 -13.41067183297047, -103.90748266932799 -13.71147630584527, -103.62049723676799 -14.007812326905677 C-103.29387269081263 -14.304444097530416, -102.96724814485728 -14.601075868155156, -102.6951412085019 -14.848196188198107 C-102.3475866434204 -15.125361705035193, -102.0000320783389 -15.402527221872276, -101.71784284457871 -15.627565626425149 C-101.43174089458634 -15.827137961586025, -101.14563894459397 -16.026710296746902, -100.69261807360571 -16.342718045390885 C-100.31401619293052 -16.572228730367797, -99.93541431225533 -16.80173941534471, -99.62367976407678 -16.99071473040609 C-99.22664722749226 -17.19784635043076, -98.82961469090775 -17.40497797045543, -98.5154204127924 -17.56889292409717 C-98.15300178376852 -17.729324900399387, -97.79058315474464 -17.889756876701604, -97.37239409514781 -18.07487676824742 C-97.09008703048444 -18.17876837766144, -96.80777996582106 -18.282659987075462, -96.19929775146062 -18.506587066708033 C-95.73706996820704 -18.64377384649455, -95.27484218495346 -18.780960626281068, -95.00095188623541 -18.862249829261067 C-94.69690576072726 -18.931646373321914, -94.3928596352191 -19.001042917382758, -93.78228075967677 -19.140403561325773 C-93.37473610971247 -19.206292219776035, -92.9671914597482 -19.2721808782263, -92.54829215284788 -19.3399052695533 C-92.25757376796577 -19.367950522502863, -91.96685538308365 -19.39599577545243, -91.3040567896239 -19.45993515863156 C-90.99701713848145 -19.46978132262727, -90.68997748733901 -19.479627486622984, -90.0546875 -19.5 C-90.0546875 -19.5, -90.0546875 -19.5, -90.0546875 -19.5" stroke="none" stroke-width="0" fill="#1f9d64" style="fill:#1f9d64 !important;stroke:#1f9d64 !important"/><path d="M-90.0546875 -19.5 C-44.73228169658535 -19.5, 0.5901241068292933 -19.5, 90.0546875 -19.5 M-90.0546875 -19.5 C-34.528308831789616 -19.5, 20.99806983642077 -19.5, 90.0546875 -19.5 M90.0546875 -19.5 C90.0546875 -19.5, 90.0546875 -19.5, 90.0546875 -19.5 M90.0546875 -19.5 C90.0546875 -19.5, 90.0546875 -19.5, 90.0546875 -19.5 M90.0546875 -19.5 C90.52309936233225 -19.484978943283384, 90.99151122466449 -19.46995788656677, 91.3040567896239 -19.45993515863156 M90.0546875 -19.5 C90.48649724661108 -19.486152701892866, 90.91830699322216 -19.472305403785732, 91.3040567896239 -19.45993515863156 M91.3040567896239 -19.45993515863156 C91.68077886272678 -19.423593233313902, 92.05750093582968 -19.387251307996248, 92.54829215284786 -19.3399052695533 M91.3040567896239 -19.45993515863156 C91.6761827327082 -19.42403661644914, 92.0483086757925 -19.388138074266724, 92.54829215284786 -19.3399052695533 M92.54829215284786 -19.3399052695533 C93.0094014151786 -19.265356699975403, 93.47051067750934 -19.190808130397507, 93.78228075967675 -19.140403561325776 M92.54829215284786 -19.3399052695533 C92.88468288299488 -19.285520225052203, 93.2210736131419 -19.231135180551107, 93.78228075967675 -19.140403561325776 M93.78228075967675 -19.140403561325776 C94.17279078252503 -19.05127219692671, 94.5633008053733 -18.96214083252764, 95.00095188623538 -18.862249829261074 M93.78228075967675 -19.140403561325776 C94.2441810584402 -19.03497783231416, 94.70608135720366 -18.929552103302537, 95.00095188623538 -18.862249829261074 M95.00095188623538 -18.862249829261074 C95.33758609989593 -18.762338561675673, 95.67422031355646 -18.66242729409027, 96.1992977514606 -18.50658706670804 M95.00095188623538 -18.862249829261074 C95.25614816553123 -18.786508913118674, 95.51134444482709 -18.71076799697627, 96.1992977514606 -18.50658706670804 M96.1992977514606 -18.50658706670804 C96.6074835284072 -18.356370927563734, 97.0156693053538 -18.206154788419425, 97.3723940951478 -18.074876768247425 M96.1992977514606 -18.50658706670804 C96.4676445123716 -18.407832978122524, 96.73599127328261 -18.30907888953701, 97.3723940951478 -18.074876768247425 M97.3723940951478 -18.074876768247425 C97.67660015329598 -17.94021377025732, 97.98080621144416 -17.80555077226721, 98.51542041279238 -17.568892924097174 M97.3723940951478 -18.074876768247425 C97.69407127585372 -17.932479822563444, 98.01574845655963 -17.79008287687946, 98.51542041279238 -17.568892924097174 M98.51542041279238 -17.568892924097174 C98.76142921356485 -17.440550290310338, 99.00743801433731 -17.3122076565235, 99.62367976407678 -16.990714730406097 M98.51542041279238 -17.568892924097174 C98.75793814212558 -17.442371580044064, 99.00045587145877 -17.315850235990958, 99.62367976407678 -16.990714730406097 M99.62367976407678 -16.990714730406097 C99.9869687924318 -16.770486786493983, 100.35025782078681 -16.55025884258187, 100.6926180736057 -16.342718045390892 M99.62367976407678 -16.990714730406097 C99.88406236177492 -16.83286926950349, 100.14444495947308 -16.675023808600884, 100.6926180736057 -16.342718045390892 M100.6926180736057 -16.342718045390892 C100.93498677588626 -16.173652130652, 101.17735547816682 -16.0045862159131, 101.71784284457871 -15.627565626425154 M100.6926180736057 -16.342718045390892 C101.05987808963721 -16.086533356637165, 101.42713810566873 -15.830348667883435, 101.71784284457871 -15.627565626425154 M101.71784284457871 -15.627565626425154 C101.9354080130424 -15.454063194227643, 102.15297318150608 -15.280560762030133, 102.69514120850187 -14.848196188198123 M101.71784284457871 -15.627565626425154 C102.0277504605947 -15.380422549640409, 102.33765807661071 -15.133279472855664, 102.69514120850187 -14.848196188198123 M102.69514120850187 -14.848196188198123 C102.92136512904273 -14.642745609119855, 103.14758904958359 -14.437295030041586, 103.62049723676799 -14.007812326905688 M102.69514120850187 -14.848196188198123 C102.98616511357525 -14.583895977681053, 103.27718901864864 -14.31959576716398, 103.62049723676799 -14.007812326905688 M103.62049723676799 -14.007812326905688 C103.93453756371329 -13.683539906144313, 104.2485778906586 -13.359267485382938, 104.49010844296865 -13.10986736009568 M103.62049723676799 -14.007812326905688 C103.85775999837443 -13.762819045912037, 104.09502275998086 -13.517825764918387, 104.49010844296865 -13.10986736009568 M104.49010844296865 -13.10986736009568 C104.78304874555504 -12.765763011902278, 105.07598904814144 -12.421658663708875, 105.30040140812658 -12.158051136245305 M104.49010844296865 -13.10986736009568 C104.76568181691992 -12.786163194483315, 105.04125519087121 -12.462459028870951, 105.30040140812658 -12.158051136245305 M105.30040140812658 -12.158051136245305 C105.57397096791466 -11.791492848828875, 105.84754052770275 -11.424934561412448, 106.04804646464063 -11.156274872382312 M105.30040140812658 -12.158051136245305 C105.55194938235569 -11.820999767270186, 105.8034973565848 -11.483948398295066, 106.04804646464063 -11.156274872382312 M106.04804646464063 -11.156274872382312 C106.27794001479992 -10.803096644275705, 106.50783356495921 -10.4499184161691, 106.72997137860425 -10.108655082055241 M106.04804646464063 -11.156274872382312 C106.21553783253559 -10.898963153565916, 106.38302920043053 -10.64165143474952, 106.72997137860425 -10.108655082055241 M106.72997137860425 -10.108655082055241 C106.90728307988573 -9.793820201673283, 107.0845947811672 -9.478985321291322, 107.3433739742735 -9.019496659696287 M106.72997137860425 -10.108655082055241 C106.88502234078521 -9.833346398090514, 107.04007330296616 -9.558037714125788, 107.3433739742735 -9.019496659696287 M107.3433739742735 -9.019496659696287 C107.52492575167236 -8.642500509341833, 107.70647752907121 -8.265504358987378, 107.88573364880834 -7.893275190886684 M107.3433739742735 -9.019496659696287 C107.46519995215466 -8.766522409967708, 107.58702593003582 -8.513548160239129, 107.88573364880834 -7.893275190886684 M107.88573364880834 -7.893275190886684 C107.9817849771798 -7.6560265527830955, 108.07783630555124 -7.418777914679506, 108.35482172997033 -6.734618561215508 M107.88573364880834 -7.893275190886684 C108.03650911731289 -7.52085686863508, 108.18728458581744 -7.148438546383476, 108.35482172997033 -6.734618561215508 M108.35482172997033 -6.734618561215508 C108.51129455859986 -6.263347331942972, 108.66776738722939 -5.7920761026704355, 108.74871063421489 -5.548287939305138 M108.35482172997033 -6.734618561215508 C108.44679700154605 -6.4576036974989, 108.53877227312175 -6.180588833782291, 108.74871063421489 -5.548287939305138 M108.74871063421489 -5.548287939305138 C108.82571269022424 -5.254645726839297, 108.90271474623358 -4.961003514373456, 109.06578178754556 -4.339158212148133 M108.74871063421489 -5.548287939305138 C108.82091764582336 -5.272931309325247, 108.89312465743183 -4.997574679345355, 109.06578178754556 -4.339158212148133 M109.06578178754556 -4.339158212148133 C109.15913106582246 -3.859829397573183, 109.25248034409937 -3.3805005829982333, 109.30473227658177 -3.1121979531509023 M109.06578178754556 -4.339158212148133 C109.13334586131005 -3.992230973039514, 109.20090993507455 -3.645303733930895, 109.30473227658177 -3.1121979531509023 M109.30473227658177 -3.1121979531509023 C109.35263075019226 -2.740706850451402, 109.40052922380275 -2.369215747751902, 109.46458020250937 -1.872449005199798 M109.30473227658177 -3.1121979531509023 C109.33945431293205 -2.842900695859838, 109.37417634928231 -2.5736034385687736, 109.46458020250937 -1.872449005199798 M109.46458020250937 -1.872449005199798 C109.49372779363354 -1.418451745928746, 109.52287538475771 -0.9644544866576943, 109.54466871591342 -0.6250057626472757 M109.46458020250937 -1.872449005199798 C109.48754901793654 -1.5146911648274068, 109.51051783336372 -1.1569333244550157, 109.54466871591342 -0.6250057626472757 M109.54466871591342 -0.6250057626472757 C109.54466871591342 -0.20773934351831197, 109.54466871591342 0.20952707561065176, 109.54466871591342 0.625005762647271 M109.54466871591342 -0.6250057626472757 C109.54466871591342 -0.1428909924615177, 109.54466871591342 0.3392237777242403, 109.54466871591342 0.625005762647271 M109.54466871591342 0.625005762647271 C109.52689934251431 0.9017780965184712, 109.5091299691152 1.1785504303896714, 109.46458020250937 1.8724490051997846 M109.54466871591342 0.625005762647271 C109.52759492940757 0.8909437691881416, 109.51052114290174 1.156881775729012, 109.46458020250937 1.8724490051997846 M109.46458020250937 1.8724490051997846 C109.40240450406735 2.3546714443356813, 109.34022880562533 2.8368938834715784, 109.30473227658177 3.1121979531508885 M109.46458020250937 1.8724490051997846 C109.41147426498978 2.284328169648151, 109.3583683274702 2.696207334096517, 109.30473227658177 3.1121979531508885 M109.30473227658177 3.1121979531508885 C109.24523265368894 3.4177159414558367, 109.18573303079611 3.7232339297607844, 109.06578178754556 4.339158212148129 M109.30473227658177 3.1121979531508885 C109.22960705963015 3.4979500644772044, 109.15448184267855 3.8837021758035197, 109.06578178754556 4.339158212148129 M109.06578178754556 4.339158212148129 C108.94689593194143 4.792521505022459, 108.82801007633729 5.245884797896789, 108.74871063421489 5.548287939305125 M109.06578178754556 4.339158212148129 C108.96218239339848 4.734227602292429, 108.85858299925138 5.129296992436728, 108.74871063421489 5.548287939305125 M108.74871063421489 5.548287939305125 C108.6330984801738 5.896493326981642, 108.51748632613273 6.244698714658159, 108.35482172997033 6.734618561215495 M108.74871063421489 5.548287939305125 C108.61884605600547 5.939419357761251, 108.48898147779606 6.330550776217376, 108.35482172997033 6.734618561215495 M108.35482172997033 6.734618561215495 C108.21624802745225 7.076898285575401, 108.0776743249342 7.419178009935306, 107.88573364880834 7.893275190886679 M108.35482172997033 6.734618561215495 C108.21404836945302 7.082331483360995, 108.07327500893572 7.430044405506495, 107.88573364880834 7.893275190886679 M107.88573364880834 7.893275190886679 C107.68839353581264 8.303056157924264, 107.49105342281693 8.71283712496185, 107.3433739742735 9.019496659696284 M107.88573364880834 7.893275190886679 C107.70110270422256 8.27666529778841, 107.51647175963679 8.66005540469014, 107.3433739742735 9.019496659696284 M107.3433739742735 9.019496659696284 C107.21872502131205 9.240823497754503, 107.09407606835062 9.462150335812725, 106.72997137860425 10.108655082055236 M107.3433739742735 9.019496659696284 C107.20607132724847 9.263291412889878, 107.06876868022343 9.507086166083473, 106.72997137860425 10.108655082055236 M106.72997137860425 10.108655082055236 C106.47972225425606 10.493104938353008, 106.22947312990787 10.87755479465078, 106.04804646464065 11.156274872382301 M106.72997137860425 10.108655082055236 C106.52542683007377 10.422890436499971, 106.32088228154329 10.737125790944704, 106.04804646464065 11.156274872382301 M106.04804646464065 11.156274872382301 C105.78220755519699 11.512474792613942, 105.51636864575332 11.868674712845582, 105.30040140812659 12.158051136245302 M106.04804646464065 11.156274872382301 C105.75568160809969 11.548017145160815, 105.46331675155874 11.93975941793933, 105.30040140812659 12.158051136245302 M105.30040140812659 12.158051136245302 C105.02034831562656 12.487017434168234, 104.74029522312652 12.815983732091166, 104.49010844296866 13.10986736009567 M105.30040140812659 12.158051136245302 C105.05150148461483 12.450423149209078, 104.80260156110306 12.742795162172854, 104.49010844296866 13.10986736009567 M104.49010844296866 13.10986736009567 C104.19799097701932 13.411502626978354, 103.90587351106997 13.713137893861038, 103.62049723676799 14.007812326905684 M104.49010844296866 13.10986736009567 C104.20673992446004 13.402468620443862, 103.92337140595141 13.695069880792056, 103.62049723676799 14.007812326905684 M103.62049723676799 14.007812326905684 C103.3818995414987 14.22450044080018, 103.1433018462294 14.441188554694676, 102.6951412085019 14.848196188198111 M103.62049723676799 14.007812326905684 C103.42298890102278 14.187184171645285, 103.22548056527756 14.366556016384887, 102.6951412085019 14.848196188198111 M102.6951412085019 14.848196188198111 C102.37346369518438 15.104725444870692, 102.05178618186686 15.361254701543274, 101.71784284457871 15.627565626425152 M102.6951412085019 14.848196188198111 C102.474923772153 15.023813733454258, 102.2547063358041 15.199431278710405, 101.71784284457871 15.627565626425152 M101.71784284457871 15.627565626425152 C101.48528078316927 15.789790853014994, 101.25271872175985 15.952016079604835, 100.6926180736057 16.34271804539089 M101.71784284457871 15.627565626425152 C101.49789741984813 15.780990033433225, 101.27795199511755 15.9344144404413, 100.6926180736057 16.34271804539089 M100.6926180736057 16.34271804539089 C100.41978202278116 16.50811286276333, 100.14694597195663 16.67350768013577, 99.62367976407678 16.990714730406093 M100.6926180736057 16.34271804539089 C100.29988869996903 16.580792899623415, 99.90715932633236 16.81886775385594, 99.62367976407678 16.990714730406093 M99.62367976407678 16.990714730406093 C99.24360538500706 17.188999290517508, 98.86353100593735 17.387283850628922, 98.51542041279238 17.56889292409717 M99.62367976407678 16.990714730406093 C99.3352661395181 17.14117993360062, 99.0468525149594 17.291645136795147, 98.51542041279238 17.56889292409717 M98.51542041279238 17.56889292409717 C98.06836572133554 17.76679077459887, 97.6213110298787 17.964688625100575, 97.3723940951478 18.07487676824742 M98.51542041279238 17.56889292409717 C98.24610545472464 17.688110667089372, 97.97679049665692 17.807328410081574, 97.3723940951478 18.07487676824742 M97.3723940951478 18.07487676824742 C96.94082822303321 18.233696998536782, 96.50926235091862 18.392517228826144, 96.19929775146062 18.506587066708033 M97.3723940951478 18.07487676824742 C97.06964950414908 18.186289576275268, 96.76690491315037 18.29770238430312, 96.19929775146062 18.506587066708033 M96.19929775146062 18.506587066708033 C95.75603617291225 18.638144776493686, 95.31277459436386 18.769702486279343, 95.00095188623541 18.86224982926107 M96.19929775146062 18.506587066708033 C95.90949443771764 18.592599169018314, 95.61969112397466 18.678611271328595, 95.00095188623541 18.86224982926107 M95.00095188623541 18.86224982926107 C94.56363280575727 18.96206505560651, 94.12631372527912 19.061880281951947, 93.78228075967677 19.140403561325773 M95.00095188623541 18.86224982926107 C94.7164934596404 18.92717560886667, 94.43203503304541 18.992101388472268, 93.78228075967677 19.140403561325773 M93.78228075967677 19.140403561325773 C93.39790140689246 19.202547034177538, 93.01352205410815 19.264690507029304, 92.54829215284788 19.3399052695533 M93.78228075967677 19.140403561325773 C93.42730083989403 19.197793961845854, 93.07232092011128 19.255184362365934, 92.54829215284788 19.3399052695533 M92.54829215284788 19.3399052695533 C92.20550849960424 19.372973196324054, 91.86272484636058 19.406041123094813, 91.3040567896239 19.45993515863156 M92.54829215284788 19.3399052695533 C92.0614394738448 19.386871361970716, 91.57458679484171 19.43383745438813, 91.3040567896239 19.45993515863156 M91.3040567896239 19.45993515863156 C90.87675604106981 19.473637861947235, 90.44945529251572 19.487340565262915, 90.0546875 19.5 M91.3040567896239 19.45993515863156 C90.89134499531019 19.473170022580426, 90.47863320099647 19.48640488652929, 90.0546875 19.5 M90.0546875 19.5 C90.0546875 19.5, 90.0546875 19.5, 90.0546875 19.5 M90.0546875 19.5 C90.0546875 19.5, 90.0546875 19.5, 90.0546875 19.5 M90.0546875 19.5 C38.313810572582184 19.5, -13.427066354835631 19.5, -90.0546875 19.5 M90.0546875 19.5 C42.58403815798263 19.5, -4.886611184034734 19.5, -90.0546875 19.5 M-90.0546875 19.5 C-90.55366669188246 19.483998708520406, -91.05264588376491 19.467997417040817, -91.3040567896239 19.45993515863156 M-90.0546875 19.5 C-90.47803242184833 19.486424152347226, -90.90137734369665 19.472848304694452, -91.3040567896239 19.45993515863156 M-91.3040567896239 19.45993515863156 C-91.64119043517351 19.427412281307916, -91.97832408072314 19.394889403984276, -92.54829215284786 19.3399052695533 M-91.3040567896239 19.45993515863156 C-91.6236456909034 19.429104801687014, -91.9432345921829 19.398274444742466, -92.54829215284786 19.3399052695533 M-92.54829215284786 19.3399052695533 C-92.98754627774966 19.26889006910579, -93.42680040265145 19.197874868658282, -93.78228075967675 19.140403561325773 M-92.54829215284786 19.3399052695533 C-92.91162039243511 19.28116517742941, -93.27494863202236 19.222425085305524, -93.78228075967675 19.140403561325773 M-93.78228075967675 19.140403561325773 C-94.21112488710904 19.042522687708818, -94.63996901454132 18.94464181409186, -95.00095188623538 18.862249829261074 M-93.78228075967675 19.140403561325773 C-94.10712716981337 19.066259488033023, -94.43197357994998 18.992115414740276, -95.00095188623538 18.862249829261074 M-95.00095188623538 18.862249829261074 C-95.34996064398088 18.758665861946564, -95.69896940172639 18.655081894632055, -96.19929775146059 18.506587066708043 M-95.00095188623538 18.862249829261074 C-95.43390115672138 18.733752758377932, -95.86685042720735 18.60525568749479, -96.19929775146059 18.506587066708043 M-96.19929775146059 18.506587066708043 C-96.56712642417791 18.37122271497709, -96.93495509689525 18.235858363246134, -97.3723940951478 18.074876768247425 M-96.19929775146059 18.506587066708043 C-96.46890983664211 18.407367327094445, -96.73852192182365 18.30814758748085, -97.3723940951478 18.074876768247425 M-97.3723940951478 18.074876768247425 C-97.76741042257433 17.900014757838722, -98.16242675000085 17.72515274743002, -98.51542041279238 17.568892924097174 M-97.3723940951478 18.074876768247425 C-97.61774024690085 17.966269304801354, -97.8630863986539 17.857661841355284, -98.51542041279238 17.568892924097174 M-98.51542041279238 17.568892924097174 C-98.81374383491422 17.413257785861482, -99.11206725703606 17.25762264762579, -99.62367976407678 16.990714730406097 M-98.51542041279238 17.568892924097174 C-98.8485333609674 17.3951081124033, -99.1816463091424 17.221323300709425, -99.62367976407678 16.990714730406097 M-99.62367976407678 16.990714730406097 C-99.88687278270248 16.831165575821338, -100.1500658013282 16.671616421236575, -100.69261807360569 16.3427180453909 M-99.62367976407678 16.990714730406097 C-100.01658007010248 16.752536255954837, -100.40948037612816 16.514357781503577, -100.69261807360569 16.3427180453909 M-100.69261807360569 16.3427180453909 C-101.05394780669512 16.090670065299754, -101.41527753978457 15.838622085208607, -101.71784284457871 15.627565626425156 M-100.69261807360569 16.3427180453909 C-101.09426238064282 16.06254836370362, -101.49590668767995 15.782378682016343, -101.71784284457871 15.627565626425156 M-101.71784284457871 15.627565626425156 C-102.09291591079243 15.328454837233187, -102.46798897700614 15.029344048041215, -102.69514120850187 14.848196188198125 M-101.71784284457871 15.627565626425156 C-101.94886118633455 15.443334646531127, -102.1798795280904 15.2591036666371, -102.69514120850187 14.848196188198125 M-102.69514120850187 14.848196188198125 C-103.0070822219984 14.564899613247507, -103.31902323549495 14.281603038296888, -103.62049723676797 14.007812326905697 M-102.69514120850187 14.848196188198125 C-103.05265044722006 14.523515756770374, -103.41015968593825 14.198835325342625, -103.62049723676797 14.007812326905697 M-103.62049723676797 14.007812326905697 C-103.91038611136793 13.70847826356202, -104.20027498596787 13.409144200218343, -104.49010844296865 13.109867360095677 M-103.62049723676797 14.007812326905697 C-103.8374332114101 13.783808122312943, -104.05436918605224 13.559803917720188, -104.49010844296865 13.109867360095677 M-104.49010844296865 13.109867360095677 C-104.72620522881428 12.832534641153703, -104.96230201465991 12.55520192221173, -105.30040140812658 12.158051136245307 M-104.49010844296865 13.109867360095677 C-104.78789861063879 12.760066084409766, -105.08568877830893 12.410264808723856, -105.30040140812658 12.158051136245307 M-105.30040140812658 12.158051136245307 C-105.4844874137254 11.911392659322987, -105.66857341932425 11.664734182400666, -106.04804646464063 11.156274872382316 M-105.30040140812658 12.158051136245307 C-105.58519565341965 11.776452792842079, -105.86998989871273 11.394854449438853, -106.04804646464063 11.156274872382316 M-106.04804646464063 11.156274872382316 C-106.26530240175016 10.822511411594409, -106.48255833885969 10.4887479508065, -106.72997137860425 10.108655082055249 M-106.04804646464063 11.156274872382316 C-106.28776871005881 10.787997128983836, -106.52749095547698 10.419719385585354, -106.72997137860425 10.108655082055249 M-106.72997137860425 10.108655082055249 C-106.91623648647708 9.777922521639606, -107.10250159434992 9.447189961223962, -107.3433739742735 9.019496659696289 M-106.72997137860425 10.108655082055249 C-106.93454503957433 9.745413831673401, -107.13911870054442 9.382172581291556, -107.3433739742735 9.019496659696289 M-107.3433739742735 9.019496659696289 C-107.45423827287655 8.789284571531072, -107.5651025714796 8.559072483365856, -107.88573364880834 7.893275190886686 M-107.3433739742735 9.019496659696289 C-107.47768332233179 8.74060042469358, -107.61199267039007 8.461704189690872, -107.88573364880834 7.893275190886686 M-107.88573364880834 7.893275190886686 C-108.0085639104125 7.58988206996286, -108.13139417201666 7.286488949039033, -108.35482172997033 6.73461856121551 M-107.88573364880834 7.893275190886686 C-108.03579806746559 7.522613175505101, -108.18586248612286 7.151951160123516, -108.35482172997033 6.73461856121551 M-108.35482172997033 6.73461856121551 C-108.49020582367508 6.326863241502779, -108.62558991737984 5.919107921790048, -108.74871063421489 5.5482879393051325 M-108.35482172997033 6.73461856121551 C-108.44201610654243 6.472002991517594, -108.52921048311454 6.209387421819678, -108.74871063421489 5.5482879393051325 M-108.74871063421489 5.5482879393051325 C-108.87374329088806 5.071484229914128, -108.99877594756124 4.594680520523122, -109.06578178754556 4.339158212148136 M-108.74871063421489 5.5482879393051325 C-108.83384802432991 5.223622172018269, -108.91898541444493 4.898956404731405, -109.06578178754556 4.339158212148136 M-109.06578178754556 4.339158212148136 C-109.14977814766227 3.9078546555858042, -109.23377450777899 3.4765510990234727, -109.30473227658177 3.112197953150904 M-109.06578178754556 4.339158212148136 C-109.11880777065976 4.066880995902256, -109.17183375377394 3.7946037796563763, -109.30473227658177 3.112197953150904 M-109.30473227658177 3.112197953150904 C-109.35455914197227 2.7257506246097067, -109.40438600736277 2.3393032960685094, -109.46458020250937 1.872449005199809 M-109.30473227658177 3.112197953150904 C-109.36314502000309 2.659160250076043, -109.42155776342442 2.2061225470011814, -109.46458020250937 1.872449005199809 M-109.46458020250937 1.872449005199809 C-109.4873449373431 1.5178698848012964, -109.51010967217682 1.1632907644027837, -109.54466871591342 0.6250057626472781 M-109.46458020250937 1.872449005199809 C-109.48115195817266 1.614330534263722, -109.49772371383594 1.3562120633276349, -109.54466871591342 0.6250057626472781 M-109.54466871591342 0.6250057626472781 C-109.54466871591342 0.23279051572245635, -109.54466871591342 -0.15942473120236544, -109.54466871591342 -0.6250057626472687 M-109.54466871591342 0.6250057626472781 C-109.54466871591342 0.20268790622354188, -109.54466871591342 -0.21962995020019438, -109.54466871591342 -0.6250057626472687 M-109.54466871591342 -0.6250057626472687 C-109.51657207921124 -1.0626335584804552, -109.48847544250908 -1.5002613543136416, -109.46458020250937 -1.8724490051997822 M-109.54466871591342 -0.6250057626472687 C-109.5150027404186 -1.0870772769234354, -109.48533676492379 -1.549148791199602, -109.46458020250937 -1.8724490051997822 M-109.46458020250937 -1.8724490051997822 C-109.42950994730191 -2.1444469791835634, -109.39443969209447 -2.416444953167345, -109.30473227658177 -3.112197953150895 M-109.46458020250937 -1.8724490051997822 C-109.42376312768577 -2.1890181772884216, -109.3829460528622 -2.5055873493770613, -109.30473227658177 -3.112197953150895 M-109.30473227658177 -3.112197953150895 C-109.2156347516537 -3.569694912887991, -109.12653722672563 -4.027191872625087, -109.06578178754556 -4.339158212148126 M-109.30473227658177 -3.112197953150895 C-109.2468635283233 -3.409341744893853, -109.18899478006485 -3.7064855366368112, -109.06578178754556 -4.339158212148126 M-109.06578178754556 -4.339158212148126 C-108.98688159056441 -4.640038858798949, -108.90798139358326 -4.940919505449772, -108.74871063421489 -5.548287939305123 M-109.06578178754556 -4.339158212148126 C-108.94795964567221 -4.788465103550532, -108.83013750379885 -5.237771994952938, -108.74871063421489 -5.548287939305123 M-108.74871063421489 -5.548287939305123 C-108.65393492698065 -5.833737269036357, -108.55915921974642 -6.119186598767591, -108.35482172997033 -6.734618561215485 M-108.74871063421489 -5.548287939305123 C-108.59621404724177 -6.00758336223661, -108.44371746026866 -6.466878785168098, -108.35482172997033 -6.734618561215485 M-108.35482172997033 -6.734618561215485 C-108.23459130521744 -7.031590034852253, -108.11436088046455 -7.328561508489021, -107.88573364880834 -7.893275190886676 M-108.35482172997033 -6.734618561215485 C-108.21550073535866 -7.078744111494481, -108.07617974074701 -7.422869661773476, -107.88573364880834 -7.893275190886676 M-107.88573364880834 -7.893275190886676 C-107.72212077212883 -8.233020830066444, -107.55850789544931 -8.57276646924621, -107.3433739742735 -9.019496659696282 M-107.88573364880834 -7.893275190886676 C-107.77487840005512 -8.123468486845105, -107.66402315130189 -8.353661782803533, -107.3433739742735 -9.019496659696282 M-107.3433739742735 -9.019496659696282 C-107.15420636735568 -9.355382901076206, -106.96503876043786 -9.691269142456132, -106.72997137860425 -10.108655082055243 M-107.3433739742735 -9.019496659696282 C-107.1665175014895 -9.33352323578411, -106.98966102870548 -9.647549811871938, -106.72997137860425 -10.108655082055243 M-106.72997137860425 -10.108655082055243 C-106.53230642163419 -10.412321536434169, -106.33464146466413 -10.715987990813096, -106.04804646464063 -11.156274872382308 M-106.72997137860425 -10.108655082055243 C-106.57818321162344 -10.341842467367641, -106.42639504464265 -10.57502985268004, -106.04804646464063 -11.156274872382308 M-106.04804646464063 -11.156274872382308 C-105.80129863395567 -11.486894486310355, -105.5545508032707 -11.817514100238403, -105.30040140812659 -12.158051136245302 M-106.04804646464063 -11.156274872382308 C-105.76427470592601 -11.536503176920856, -105.48050294721139 -11.916731481459404, -105.30040140812659 -12.158051136245302 M-105.30040140812659 -12.158051136245302 C-105.06255821466863 -12.437435284942127, -104.82471502121065 -12.716819433638953, -104.49010844296866 -13.10986736009567 M-105.30040140812659 -12.158051136245302 C-105.06352898221982 -12.436294966138247, -104.82665655631307 -12.71453879603119, -104.49010844296866 -13.10986736009567 M-104.49010844296866 -13.10986736009567 C-104.18354213441168 -13.426422243242776, -103.87697582585469 -13.742977126389883, -103.62049723676799 -14.007812326905677 M-104.49010844296866 -13.10986736009567 C-104.16760468399403 -13.442878969288019, -103.84510092501938 -13.775890578480368, -103.62049723676799 -14.007812326905677 M-103.62049723676799 -14.007812326905677 C-103.35941379141448 -14.244921404086309, -103.09833034606098 -14.482030481266943, -102.6951412085019 -14.848196188198107 M-103.62049723676799 -14.007812326905677 C-103.4084044825956 -14.200429354578281, -103.19631172842321 -14.393046382250885, -102.6951412085019 -14.848196188198107 M-102.6951412085019 -14.848196188198107 C-102.43848053397399 -15.05287624610672, -102.18181985944608 -15.257556304015331, -101.71784284457871 -15.627565626425149 M-102.6951412085019 -14.848196188198107 C-102.33780184108129 -15.133164824516117, -101.98046247366067 -15.418133460834124, -101.71784284457871 -15.627565626425149 M-101.71784284457871 -15.627565626425149 C-101.38021487813693 -15.863080280135835, -101.04258691169515 -16.09859493384652, -100.69261807360571 -16.342718045390885 M-101.71784284457871 -15.627565626425149 C-101.46203924429167 -15.806003144426002, -101.20623564400465 -15.984440662426858, -100.69261807360571 -16.342718045390885 M-100.69261807360571 -16.342718045390885 C-100.39125856551425 -16.525403950180973, -100.08989905742278 -16.70808985497106, -99.62367976407678 -16.99071473040609 M-100.69261807360571 -16.342718045390885 C-100.47520684979153 -16.474514006917207, -100.25779562597735 -16.60630996844353, -99.62367976407678 -16.99071473040609 M-99.62367976407678 -16.99071473040609 C-99.35777674551606 -17.129436164870206, -99.09187372695536 -17.26815759933432, -98.5154204127924 -17.56889292409717 M-99.62367976407678 -16.99071473040609 C-99.18305177835703 -17.220590068320394, -98.74242379263727 -17.4504654062347, -98.5154204127924 -17.56889292409717 M-98.5154204127924 -17.56889292409717 C-98.22106269205325 -17.699196355256845, -97.92670497131411 -17.829499786416516, -97.37239409514781 -18.07487676824742 M-98.5154204127924 -17.56889292409717 C-98.10978884584603 -17.748453986151414, -97.70415727889967 -17.928015048205655, -97.37239409514781 -18.07487676824742 M-97.37239409514781 -18.07487676824742 C-96.99351309074758 -18.214308480204313, -96.61463208634737 -18.353740192161208, -96.19929775146062 -18.506587066708033 M-97.37239409514781 -18.07487676824742 C-97.08125165647465 -18.182019876970347, -96.79010921780149 -18.28916298569327, -96.19929775146062 -18.506587066708033 M-96.19929775146062 -18.506587066708033 C-95.85647017158807 -18.608336492875516, -95.51364259171554 -18.710085919042996, -95.00095188623541 -18.862249829261067 M-96.19929775146062 -18.506587066708033 C-95.78578655400433 -18.62931501954849, -95.37227535654804 -18.75204297238895, -95.00095188623541 -18.862249829261067 M-95.00095188623541 -18.862249829261067 C-94.68887129728355 -18.933480187173164, -94.37679070833171 -19.00471054508526, -93.78228075967677 -19.140403561325773 M-95.00095188623541 -18.862249829261067 C-94.67952349642897 -18.93561376171812, -94.35809510662253 -19.008977694175176, -93.78228075967677 -19.140403561325773 M-93.78228075967677 -19.140403561325773 C-93.5229156879271 -19.182335694720088, -93.26355061617741 -19.224267828114407, -92.54829215284788 -19.3399052695533 M-93.78228075967677 -19.140403561325773 C-93.30640916788784 -19.217338789846895, -92.8305375760989 -19.29427401836802, -92.54829215284788 -19.3399052695533 M-92.54829215284788 -19.3399052695533 C-92.08252577664197 -19.38483719169986, -91.61675940043608 -19.42976911384642, -91.3040567896239 -19.45993515863156 M-92.54829215284788 -19.3399052695533 C-92.2008470379162 -19.37342288192687, -91.85340192298452 -19.406940494300443, -91.3040567896239 -19.45993515863156 M-91.3040567896239 -19.45993515863156 C-90.85803576664004 -19.474238184711396, -90.4120147436562 -19.488541210791233, -90.0546875 -19.5 M-91.3040567896239 -19.45993515863156 C-90.9611107187607 -19.47093277162011, -90.61816464789749 -19.48193038460866, -90.0546875 -19.5 M-90.0546875 -19.5 C-90.0546875 -19.5, -90.0546875 -19.5, -90.0546875 -19.5 M-90.0546875 -19.5 C-90.0546875 -19.5, -90.0546875 -19.5, -90.0546875 -19.5" stroke="#1f9d64" stroke-width="1.3" fill="none" stroke-dasharray="0 0" style="fill:#1f9d64 !important;stroke:#1f9d64 !important"/></g><g class="label" style="color:#ffffff !important" transform="translate(-97.1796875, -12)"><rect/><foreignObject width="194.359375" height="24"><div style="color: rgb(255, 255, 255) !important; display: table-cell; white-space: nowrap; line-height: 1.5; max-width: 200px; text-align: center;" xmlns="http://www.w3.org/1999/xhtml"><span style="color:#ffffff !important" class="nodeLabel "><p>@space-uy/pulsar-ui@beta</p></span></div></foreignObject></g></g></g></g></g><defs><filter id="mermaid-svg-drop-shadow" height="130%" width="130%"><feDropShadow dx="4" dy="4" stdDeviation="0" flood-opacity="0.06" flood-color="#000000"/></filter></defs><defs><filter id="mermaid-svg-drop-shadow-small" height="150%" width="150%"><feDropShadow dx="2" dy="2" stdDeviation="0" flood-opacity="0.06" flood-color="#000000"/></filter></defs></svg>