<svg width="904" height="248" viewBox="0 0 904 248" fill="none" xmlns="http://www.w3.org/2000/svg">
<path d="M902.979 69.0024V179.376H881.998V69.0024H902.979Z" fill="#7D62CB" stroke="white"/>
<path d="M813.438 69.0024V145.073C813.438 149.997 814.036 153.745 815.194 156.356C816.407 158.974 818.081 160.726 820.202 161.668C822.374 162.634 825.079 163.127 828.337 163.127C831.595 163.127 834.301 162.634 836.473 161.668C838.591 160.727 840.24 158.978 841.402 156.363C842.563 153.752 843.162 150.001 843.162 145.073V69.0024H864.294V145.073C864.294 153.493 862.732 160.376 859.566 165.686C856.411 170.98 852.101 174.858 846.646 177.305L846.643 177.306C841.212 179.692 835.107 180.879 828.337 180.879C821.419 180.879 815.238 179.692 809.807 177.306L809.804 177.305C804.348 174.858 800.063 170.978 796.957 165.683L796.955 165.68C793.893 160.372 792.381 153.491 792.381 145.073V69.0024H813.438Z" fill="#7D62CB" stroke="white"/>
<path d="M709.648 69.5024H743.678C750.939 69.5024 757.124 70.7544 762.232 73.2584C767.34 75.7624 771.222 79.4683 773.876 84.3762C776.58 89.284 777.932 95.3186 777.932 102.48C777.932 108.189 777.106 113.147 775.453 117.354C773.851 121.51 771.547 124.991 768.542 127.795C765.588 130.6 762.007 132.778 757.8 134.331L751.716 137.786H723.546L723.47 121.035H743.227C746.482 121.035 749.186 120.308 751.34 118.856C753.543 117.404 755.171 115.401 756.223 112.847C757.324 110.242 757.875 107.263 757.875 103.907C757.875 100.251 757.375 97.1215 756.373 94.5173C755.421 91.8631 753.894 89.8349 751.791 88.4326C749.737 87.0304 747.033 86.3293 743.678 86.3293H729.781V178.877H709.648V69.5024ZM759.979 178.877L739.471 129.899H760.58L781.463 177.825V178.877H759.979Z" fill="white"/>
<path d="M657.064 86.78L632.049 178.877H610.865L645.345 69.5024H658.566L657.064 86.78ZM676.82 178.877L651.806 86.78L650.078 69.5024H663.449L698.079 178.877H676.82ZM677.496 138.162V154.914H627.316V138.162H677.496Z" fill="white"/>
<path d="M582.694 150.406C582.694 148.253 582.469 146.35 582.018 144.697C581.618 142.995 580.816 141.442 579.615 140.04C578.413 138.638 576.685 137.26 574.431 135.908C572.178 134.506 569.273 133.079 565.717 131.626C561.511 129.924 557.529 128.121 553.773 126.218C550.017 124.265 546.662 122.011 543.707 119.457C540.753 116.903 538.424 113.898 536.721 110.443C535.068 106.987 534.242 102.956 534.242 98.3484C534.242 93.8412 535.043 89.7347 536.646 86.0287C538.299 82.2728 540.627 79.0676 543.632 76.4134C546.637 73.7091 550.193 71.6308 554.299 70.1785C558.456 68.7262 563.038 68 568.046 68C575.107 68 581.167 69.4774 586.225 72.4321C591.283 75.3868 595.189 79.3932 597.944 84.4512C600.698 89.5093 602.075 95.2184 602.075 101.579H582.018C582.018 98.2733 581.518 95.3436 580.516 92.7895C579.564 90.1854 578.037 88.1571 575.934 86.7048C573.83 85.2525 571.126 84.5264 567.821 84.5264C564.716 84.5264 562.162 85.1523 560.158 86.4043C558.155 87.6063 556.678 89.2589 555.726 91.3623C554.775 93.4155 554.299 95.7693 554.299 98.4235C554.299 100.327 554.725 102.054 555.576 103.607C556.478 105.109 557.705 106.486 559.257 107.738C560.81 108.99 562.688 110.192 564.891 111.344C567.145 112.446 569.649 113.523 572.403 114.574C577.461 116.477 581.893 118.581 585.699 120.884C589.505 123.138 592.66 125.692 595.164 128.547C597.718 131.351 599.621 134.531 600.873 138.087C602.125 141.642 602.751 145.699 602.751 150.256C602.751 154.763 601.975 158.87 600.423 162.576C598.87 166.282 596.617 169.462 593.662 172.116C590.707 174.77 587.126 176.824 582.92 178.276C578.763 179.678 574.131 180.379 569.023 180.379C564.115 180.379 559.432 179.678 554.975 178.276C550.568 176.824 546.662 174.645 543.257 171.74C539.851 168.836 537.172 165.18 535.219 160.773C533.266 156.316 532.289 151.082 532.289 145.073H552.346C552.346 148.428 552.722 151.333 553.473 153.787C554.224 156.191 555.351 158.144 556.853 159.646C558.356 161.098 560.158 162.175 562.262 162.876C564.365 163.527 566.744 163.853 569.398 163.853C572.553 163.853 575.107 163.277 577.06 162.125C579.014 160.973 580.441 159.396 581.342 157.393C582.244 155.339 582.694 153.011 582.694 150.406Z" fill="white"/>
<path d="M522.373 162.125V178.877H476.926V162.125H522.373ZM482.71 69.5024V178.877H462.578V69.5024H482.71Z" fill="white"/>
<path d="M424.644 69.5024H444.776V145.073C444.776 153.436 443.224 160.222 440.119 165.43C437.014 170.639 432.782 174.445 427.424 176.849C422.065 179.202 416.031 180.379 409.32 180.379C402.459 180.379 396.349 179.202 390.991 176.849C385.632 174.445 381.425 170.639 378.37 165.43C375.366 160.222 373.863 153.436 373.863 145.073V69.5024H393.92V145.073C393.92 150.031 394.521 153.862 395.723 156.566C396.975 159.271 398.728 161.124 400.982 162.125C403.235 163.127 406.015 163.628 409.32 163.628C412.625 163.628 415.405 163.127 417.658 162.125C419.912 161.124 421.639 159.271 422.841 156.566C424.043 153.862 424.644 150.031 424.644 145.073V69.5024Z" fill="white"/>
<path d="M324.734 139.364H301.972V122.537H324.734C328.189 122.537 330.969 121.811 333.072 120.359C335.225 118.856 336.778 116.778 337.729 114.124C338.731 111.469 339.232 108.465 339.232 105.109C339.232 101.854 338.731 98.7992 337.729 95.9446C336.778 93.04 335.225 90.7113 333.072 88.9585C330.969 87.2057 328.189 86.3293 324.734 86.3293H308.132V178.877H288V69.5024H324.734C331.995 69.5024 338.205 71.0299 343.363 74.0847C348.572 77.1396 352.578 81.3463 355.382 86.7049C358.187 92.0133 359.589 98.098 359.589 104.959C359.589 112.07 358.187 118.18 355.382 123.288C352.578 128.396 348.572 132.353 343.363 135.157C338.205 137.962 331.995 139.364 324.734 139.364Z" fill="white"/>
<path d="M219 124C219 71.5329 176.467 29 124 29C71.5329 29 29 71.5329 29 124C29 176.467 71.5329 219 124 219V229C66.0101 229 19 181.99 19 124C19 66.0101 66.0101 19 124 19C181.99 19 229 66.0101 229 124C229 181.99 181.99 229 124 229V219C176.467 219 219 176.467 219 124Z" fill="white" fill-opacity="0.5"/>
<path d="M243 124C243 58.2781 189.722 5 124 5C58.2781 5 5 58.2781 5 124C5 189.722 58.2781 243 124 243V248C55.5167 248 0 192.483 0 124C1.03083e-06 55.5167 55.5167 1.03109e-06 124 0C192.483 0 248 55.5167 248 124C248 192.483 192.483 248 124 248V243C189.722 243 243 189.722 243 124Z" fill="white" fill-opacity="0.25"/>
<g filter="url(#filter0_d_2115_1983)">
<path d="M186 124C186 89.7583 158.242 62 124 62C89.7583 62 62 89.7583 62 124C62 158.242 89.7583 186 124 186V206C78.7126 206 42 169.287 42 124C42 78.7126 78.7126 42 124 42C169.287 42 206 78.7126 206 124C206 169.287 169.287 206 124 206V186C158.242 186 186 158.242 186 124Z" fill="white"/>
</g>
<path d="M163 124C163 102.461 145.539 85 124 85C102.461 85 85 102.461 85 124C85 145.539 102.461 163 124 163V173C96.938 173 75 151.062 75 124C75 96.938 96.938 75 124 75C151.062 75 173 96.938 173 124C173 151.062 151.062 173 124 173V163C145.539 163 163 145.539 163 124Z" fill="white" fill-opacity="0.5"/>
<path d="M143 124C143 113.507 134.493 105 124 105C113.507 105 105 113.507 105 124C105 134.493 113.507 143 124 143V148L123.381 147.992C110.618 147.669 100.331 137.382 100.008 124.619L100 124C100 110.745 110.745 100 124 100L124.619 100.008C137.588 100.336 148 110.952 148 124L147.992 124.619C147.664 137.588 137.048 148 124 148V143C134.493 143 143 134.493 143 124Z" fill="white" fill-opacity="0.25"/>
<g filter="url(#filter1_d_2115_1983)">
<circle cx="48.5" cy="59.5" r="13.5" fill="#7D62CB"/>
<circle cx="48.5" cy="59.5" r="13" stroke="white"/>
</g>
<defs>
<filter id="filter0_d_2115_1983" x="38" y="42" width="172" height="172" filterUnits="userSpaceOnUse" color-interpolation-filters="sRGB">
<feFlood flood-opacity="0" result="BackgroundImageFix"/>
<feColorMatrix in="SourceAlpha" type="matrix" values="0 0 0 0 0 0 0 0 0 0 0 0 0 0 0 0 0 0 127 0" result="hardAlpha"/>
<feOffset dy="4"/>
<feGaussianBlur stdDeviation="2"/>
<feComposite in2="hardAlpha" operator="out"/>
<feColorMatrix type="matrix" values="0 0 0 0 0 0 0 0 0 0 0 0 0 0 0 0 0 0 0.25 0"/>
<feBlend mode="normal" in2="BackgroundImageFix" result="effect1_dropShadow_2115_1983"/>
<feBlend mode="normal" in="SourceGraphic" in2="effect1_dropShadow_2115_1983" result="shape"/>
</filter>
<filter id="filter1_d_2115_1983" x="23" y="34" width="51" height="51" filterUnits="userSpaceOnUse" color-interpolation-filters="sRGB">
<feFlood flood-opacity="0" result="BackgroundImageFix"/>
<feColorMatrix in="SourceAlpha" type="matrix" values="0 0 0 0 0 0 0 0 0 0 0 0 0 0 0 0 0 0 127 0" result="hardAlpha"/>
<feMorphology radius="2" operator="dilate" in="SourceAlpha" result="effect1_dropShadow_2115_1983"/>
<feOffset/>
<feGaussianBlur stdDeviation="5"/>
<feComposite in2="hardAlpha" operator="out"/>
<feColorMatrix type="matrix" values="0 0 0 0 0.490196 0 0 0 0 0.384314 0 0 0 0 0.796078 0 0 0 0.5 0"/>
<feBlend mode="normal" in2="BackgroundImageFix" result="effect1_dropShadow_2115_1983"/>
<feBlend mode="normal" in="SourceGraphic" in2="effect1_dropShadow_2115_1983" result="shape"/>
</filter>
</defs>
</svg>
